HIERARCHY
ROOT joint_Root
{
	OFFSET 0.0 0.0 0.0
	CHANNELS 6 Xposition Yposition Zposition Zrotation Xrotation Yrotation 
	JOINT Hips
	{
		OFFSET -17.1583 93.1646 452.98
		CHANNELS 6 Xposition Yposition Zposition Zrotation Xrotation Yrotation 
		JOINT Spine
		{
			OFFSET 15.7357 0.0 0.0
			CHANNELS 6 Xposition Yposition Zposition Zrotation Xrotation Yrotation 
			JOINT Chest
			{
				OFFSET 8.98455 -0.406207 0.0
				CHANNELS 6 Xposition Yposition Zposition Zrotation Xrotation Yrotation 
				JOINT Neck
				{
					OFFSET 16.3773 0.0 0.0
					CHANNELS 6 Xposition Yposition Zposition Zrotation Xrotation Yrotation 
					JOINT Head
					{
						OFFSET 6.45672 0.0 0.0
						CHANNELS 6 Xposition Yposition Zposition Zrotation Xrotation Yrotation 
						End Site
						{
							OFFSET 0.0 0.0 0.0
						}
					}
				}
				JOINT Shoulder_L
				{
					OFFSET 12.9942 -0.242716 4.98039
					CHANNELS 6 Xposition Yposition Zposition Zrotation Xrotation Yrotation 
					JOINT UpperArm_L
					{
						OFFSET 5.34809 0.0 0.0
						CHANNELS 6 Xposition Yposition Zposition Zrotation Xrotation Yrotation 
						JOINT LowerArm_L
						{
							OFFSET 24.3286 1.87007e-05 0.0
							CHANNELS 6 Xposition Yposition Zposition Zrotation Xrotation Yrotation 
							JOINT Hand_L
							{
								OFFSET 22.2916 0.0 0.0
								CHANNELS 6 Xposition Yposition Zposition Zrotation Xrotation Yrotation 
								End Site
								{
									OFFSET 0.0 0.0 0.0
								}
							}
						}
					}
				}
				JOINT Shoulder_R
				{
					OFFSET 12.9945 -0.242716 -4.98039
					CHANNELS 6 Xposition Yposition Zposition Zrotation Xrotation Yrotation 
					JOINT UpperArm_R
					{
						OFFSET -5.34813 0.0 0.0
						CHANNELS 6 Xposition Yposition Zposition Zrotation Xrotation Yrotation 
						JOINT LowerArm_R
						{
							OFFSET -24.3289 0.000322201 0.0
							CHANNELS 6 Xposition Yposition Zposition Zrotation Xrotation Yrotation 
							JOINT Hand_R
							{
								OFFSET -22.2915 -0.000108084 0.0
								CHANNELS 6 Xposition Yposition Zposition Zrotation Xrotation Yrotation 
								End Site
								{
									OFFSET 0.0 0.0 0.0
								}
							}
						}
					}
				}
			}
		}
		JOINT UpperLeg_L
		{
			OFFSET -2.19248 -6.46944 0.0
			CHANNELS 6 Xposition Yposition Zposition Zrotation Xrotation Yrotation 
			JOINT LowerLeg_L
			{
				OFFSET 39.0811 0.0 -1.23785e-05
				CHANNELS 6 Xposition Yposition Zposition Zrotation Xrotation Yrotation 
				JOINT Foot_L
				{
					OFFSET 40.9854 0.0 -1.26872e-05
					CHANNELS 6 Xposition Yposition Zposition Zrotation Xrotation Yrotation 
					JOINT Toes_L
					{
						OFFSET 11.7543 0.0 0.0
						CHANNELS 6 Xposition Yposition Zposition Zrotation Xrotation Yrotation 
						End Site
						{
							OFFSET 0.0 0.0 0.0
						}
					}
				}
			}
		}
		JOINT UpperLeg_R
		{
			OFFSET -2.19251 6.46944 0.0
			CHANNELS 6 Xposition Yposition Zposition Zrotation Xrotation Yrotation 
			JOINT LowerLeg_R
			{
				OFFSET -39.0811 -0.00228153 -0.0401928
				CHANNELS 6 Xposition Yposition Zposition Zrotation Xrotation Yrotation 
				JOINT Foot_R
				{
					OFFSET -40.9854 0.0 0.0
					CHANNELS 6 Xposition Yposition Zposition Zrotation Xrotation Yrotation 
					JOINT Toes_R
					{
						OFFSET -11.7543 0.0 0.0
						CHANNELS 6 Xposition Yposition Zposition Zrotation Xrotation Yrotation 
						End Site
						{
							OFFSET 0.0 0.0 0.0
						}
					}
				}
			}
		}
	}
}
MOTION
Frames:	8
Frame Time:	0.0333333
0.000000 0.000000 0.000000 0.000000 0.000000 -0.000000 -2.736200 93.625300 -5.400700 87.808500 0.622997 -0.302019 15.735700 0.000005 -0.000001 100.314000 86.828500 -99.135300 8.984550 -0.406207 -0.000000 -1.535240 1.039780 2.371290 16.377300 -0.000001 -0.000001 -1.488780 1.078100 -1.033040 6.456720 -0.000001 -0.000000 -6.346030 -0.075445 0.814768 12.994200 -0.242716 4.980390 -92.968100 9.565300 -72.670800 5.348090 -0.000007 -0.000001 -65.547500 27.797400 -12.940400 24.328600 0.000019 0.000005 8.658740 37.211700 -14.135600 22.291600 -0.000001 0.000005 -19.567700 5.384850 -2.581000 12.994500 -0.242716 -4.980390 88.461900 5.909990 -75.383900 -5.348130 -0.000001 -0.000004 -65.704500 37.050200 -12.935000 -24.328900 0.000322 -0.000009 1.929070 13.204000 -8.405430 -22.291500 -0.000108 -0.000004 -8.985490 5.360040 -1.701320 -2.192480 -6.469440 -0.000000 -171.693000 -5.030280 -4.187240 39.081100 -0.000007 -0.000012 0.015843 -0.072822 12.274000 40.985400 -0.000006 -0.000013 -3.547010 14.142000 -65.364300 11.754300 -0.000000 0.000003 0.000739 0.154095 -10.327400 -2.192510 6.469440 -0.000001 -179.988000 6.056070 176.285000 -39.081100 -0.002282 -0.040193 0.032945 -0.136637 12.227300 -40.985400 0.000008 0.000006 -4.604090 2.463630 -66.005300 -11.754300 -0.000006 -0.000006 -0.006650 0.244296 -6.654340
0.000000 0.000000 0.000000 0.000000 0.000000 -0.000000 -2.709330 93.584600 -5.052560 87.822800 0.522775 -0.317549 15.735700 0.000005 -0.000001 105.032000 86.988400 -103.973000 8.984550 -0.406207 -0.000000 -1.961850 1.471910 2.142380 16.377300 -0.000001 -0.000001 -1.946850 0.881399 -0.599268 6.456720 -0.000001 -0.000000 -6.466130 -0.289834 1.336730 12.994200 -0.242716 4.980390 -92.858800 9.183340 -72.625000 5.348090 -0.000007 -0.000001 -62.779200 18.921200 -17.851400 24.328600 0.000019 0.000005 5.528090 40.076100 -8.550890 22.291600 -0.000001 0.000005 -29.785200 5.413980 -3.330380 12.994500 -0.242716 -4.980390 88.595500 5.389500 -75.370100 -5.348130 -0.000001 -0.000004 -62.489800 34.774000 -16.724300 -24.328900 0.000322 -0.000009 1.554780 19.874300 -4.574090 -22.291500 -0.000108 -0.000004 -18.677900 5.350490 -1.335550 -2.192480 -6.469440 -0.000000 -171.701000 -4.973360 -4.084330 39.081100 -0.000007 -0.000012 0.020230 -0.090797 12.561100 40.985400 -0.000006 -0.000013 -3.470550 14.054000 -65.683800 11.754300 -0.000000 0.000003 0.000822 0.152411 -10.395700 -2.192510 6.469440 -0.000001 179.985000 6.033260 176.369000 -39.081100 -0.002282 -0.040193 0.036007 -0.147398 12.498100 -40.985400 0.000008 0.000006 -4.393260 2.540640 -66.398800 -11.754300 -0.000006 -0.000006 -0.006728 0.244976 -6.626560
0.000000 0.000000 0.000000 0.000000 0.000000 -0.000000 -2.669160 93.604400 -4.678620 87.845300 0.504237 -0.838834 15.735700 0.000005 -0.000001 108.734000 87.554600 -107.710000 8.984550 -0.406207 -0.000000 -3.147230 1.472600 2.089490 16.377300 -0.000001 -0.000001 -2.415950 0.911081 -0.485388 6.456720 -0.000001 -0.000000 -5.562340 -0.189941 1.613750 12.994200 -0.242716 4.980390 -92.449300 7.723220 -72.343800 5.348090 -0.000007 -0.000001 -61.702100 4.956520 -22.459900 24.328600 0.000019 0.000005 3.241820 44.191500 -4.645990 22.291600 -0.000001 0.000005 -34.416900 5.316060 -0.381588 12.994500 -0.242716 -4.980390 88.908700 3.984980 -74.669000 -5.348130 -0.000001 -0.000004 -59.668100 25.979500 -20.561900 -24.328900 0.000322 -0.000009 0.414411 21.731500 -1.121590 -22.291500 -0.000108 -0.000004 -26.953600 5.200840 2.762810 -2.192480 -6.469440 -0.000000 -171.780000 -4.853430 -4.100790 39.081100 -0.000007 -0.000012 0.022877 -0.106598 12.112600 40.985400 -0.000006 -0.000013 -3.476890 13.848300 -65.838800 11.754300 -0.000000 0.000003 0.000772 0.153414 -10.355000 -2.192510 6.469440 -0.000001 179.889000 6.700130 176.329000 -39.081100 -0.002282 -0.040193 0.032019 -0.134493 12.039300 -40.985400 0.000008 0.000006 -4.721970 3.279510 -66.212600 -11.754300 -0.000006 -0.000006 -0.006889 0.246378 -6.569350
0.000000 0.000000 0.000000 0.000000 0.000000 -0.000000 -2.600450 93.629000 -4.163710 87.773400 0.325393 -1.405870 15.735700 0.000005 -0.000001 112.699000 88.244100 -111.607000 8.984550 -0.406207 -0.000000 -4.537560 1.236860 2.234550 16.377300 -0.000001 -0.000001 -2.779680 1.118900 -0.422616 6.456720 -0.000001 -0.000000 -4.615570 0.303997 1.742800 12.994200 -0.242716 4.980390 -92.045900 6.353630 -72.109300 5.348090 -0.000007 -0.000001 -57.501300 -5.018720 -27.254800 24.328600 0.000019 0.000005 2.518140 43.830700 -3.633600 22.291600 -0.000001 0.000005 -31.539300 5.307730 -0.126591 12.994500 -0.242716 -4.980390 89.282800 2.493660 -73.946900 -5.348130 -0.000001 -0.000004 -56.049700 14.044500 -24.790100 -24.328900 0.000322 -0.000009 -0.000846 20.821800 0.000095 -22.291500 -0.000108 -0.000004 -27.675800 5.090680 5.325630 -2.192480 -6.469440 -0.000000 -171.709000 -5.727570 -4.060340 39.081100 -0.000007 -0.000012 0.016539 -0.080278 11.641800 40.985400 -0.000006 -0.000013 -3.733640 14.428700 -65.718500 11.754300 -0.000000 0.000003 0.000569 0.157417 -10.192500 -2.192510 6.469440 -0.000001 179.840000 7.682480 176.503000 -39.081100 -0.002282 -0.040193 0.025149 -0.110291 11.186900 -40.985400 0.000008 0.000006 -5.135810 4.416680 -65.730300 -11.754300 -0.000006 -0.000006 -0.007086 0.248067 -6.500420
0.000000 0.000000 0.000000 0.000000 0.000000 -0.000000 -2.526610 93.661000 -3.543980 87.682900 0.184058 -1.921250 15.735700 0.000005 -0.000001 112.665000 88.856200 -111.504000 8.984550 -0.406207 -0.000000 -5.661910 0.744376 2.360850 16.377300 -0.000001 -0.000001 -4.037550 1.314680 -0.060999 6.456720 -0.000001 -0.000000 -3.435040 1.150950 1.991260 12.994200 -0.242716 4.980390 -91.660400 5.178560 -72.195300 5.348090 -0.000007 -0.000001 -50.289400 -12.736300 -31.410600 24.328600 0.000019 0.000005 2.815350 38.445700 -4.523120 22.291600 -0.000001 0.000005 -23.811500 5.334230 -0.909845 12.994500 -0.242716 -4.980390 89.633700 1.244560 -73.598000 -5.348130 -0.000001 -0.000004 -50.677900 3.425440 -29.708900 -24.328900 0.000322 -0.000009 -0.001283 16.138200 0.000071 -22.291500 -0.000108 -0.000004 -22.298400 5.194460 2.927610 -2.192480 -6.469440 -0.000000 -171.518000 -7.228690 -3.895570 39.081100 -0.000007 -0.000012 0.002073 -0.010597 11.072900 40.985400 -0.000006 -0.000013 -4.666240 15.759900 -65.111600 11.754300 -0.000000 0.000003 0.000238 0.163509 -9.945190 -2.192510 6.469440 -0.000001 179.759000 8.875870 176.997000 -39.081100 -0.002282 -0.040193 0.016462 -0.075032 9.920390 -40.985400 0.000008 0.000006 -5.768420 5.720260 -64.894000 -11.754300 -0.000006 -0.000006 -0.007171 0.248795 -6.470720
0.000000 0.000000 0.000000 0.000000 0.000000 -0.000000 -2.455970 93.710800 -2.848440 87.557900 0.091168 -2.519450 15.735700 0.000005 -0.000001 110.791000 89.394500 -109.521000 8.984550 -0.406207 -0.000000 -6.635650 0.269590 2.559630 16.377300 -0.000001 -0.000001 -5.726220 1.451070 0.454972 6.456720 -0.000001 -0.000000 -2.659380 1.949160 2.190960 12.994200 -0.242716 4.980390 -91.096300 3.479760 -72.501500 5.348090 -0.000007 -0.000001 -43.192700 -20.948600 -34.488500 24.328600 0.000019 0.000005 3.429860 32.743200 -6.324830 22.291600 -0.000001 0.000005 -13.648600 5.287670 0.338259 12.994500 -0.242716 -4.980390 90.079700 -0.264789 -73.272600 -5.348130 -0.000001 -0.000004 -44.995600 -6.378080 -34.733600 -24.328900 0.000322 -0.000009 0.060463 9.791800 -0.368320 -22.291500 -0.000108 -0.000004 -13.120400 5.328990 -0.662958 -2.192480 -6.469440 -0.000000 -171.276000 -8.555220 -3.618870 39.081100 -0.000007 -0.000012 -0.012785 0.071359 10.157000 40.985400 -0.000006 -0.000013 -6.119860 16.940000 -64.082900 11.754300 -0.000000 0.000003 -0.000115 0.169544 -9.700110 -2.192510 6.469440 -0.000001 179.709000 10.165500 177.843000 -39.081100 -0.002282 -0.040193 0.007854 -0.032559 7.888390 -40.985400 0.000008 0.000006 -6.678690 6.988840 -63.655200 -11.754300 -0.000006 -0.000006 -0.008311 0.258219 -6.085910
0.000000 0.000000 0.000000 0.000000 0.000000 -0.000000 -2.359580 93.837600 -2.229810 87.508300 0.082969 -3.634910 15.735700 0.000005 -0.000001 -175.363000 89.886400 176.685000 8.984550 -0.406207 -0.000000 -7.783570 0.046697 2.653180 16.377300 -0.000001 -0.000001 -7.554410 1.318410 1.046390 6.456720 -0.000001 -0.000000 -2.538260 2.349660 2.390300 12.994200 -0.242716 4.980390 -90.439100 1.368090 -72.198700 5.348090 -0.000007 -0.000001 -36.260000 -27.908200 -37.586800 24.328600 0.000019 0.000005 3.648300 27.401400 -7.889000 22.291600 -0.000001 0.000005 -3.050050 5.154760 3.731800 12.994500 -0.242716 -4.980390 90.620000 -1.982360 -72.630400 -5.348130 -0.000001 -0.000004 -39.602500 -15.749300 -39.442900 -24.328900 0.000322 -0.000009 0.136167 4.238620 -1.864150 -22.291500 -0.000108 -0.000004 -1.961600 5.382350 -2.351820 -2.192480 -6.469440 -0.000000 -171.122000 -9.233750 -3.089420 39.081100 -0.000007 -0.000012 -0.016548 0.126323 7.462780 40.985400 -0.000006 -0.000013 -8.919550 17.538400 -61.586200 11.754300 -0.000000 0.000003 -0.000396 0.174044 -9.517310 -2.192510 6.469440 -0.000001 179.578000 10.914000 179.412000 -39.081100 -0.002282 -0.040193 0.006280 -0.051895 3.231220 -40.985400 0.000008 0.000006 -8.983650 7.616400 -60.623500 -11.754300 -0.000006 -0.000006 -0.009075 0.264257 -5.839150
0.000000 0.000000 0.000000 0.000000 0.000000 -0.000000 -2.234530 94.060200 -1.760120 87.519100 -0.061978 -5.096930 15.735700 0.000005 -0.000001 -104.086000 89.294400 105.404000 8.984550 -0.406207 -0.000000 -9.135240 0.148136 2.654630 16.377300 -0.000001 -0.000001 -9.182240 1.066380 1.419150 6.456720 -0.000001 -0.000000 -2.590090 2.392120 2.899780 12.994200 -0.242716 4.980390 -89.692800 -0.926471 -71.663000 5.348090 -0.000007 -0.000001 -31.357700 -35.628100 -41.288000 24.328600 0.000019 0.000005 2.874150 21.154700 -7.919730 22.291600 -0.000001 0.000005 6.380290 5.043430 6.349990 12.994500 -0.242716 -4.980390 91.151600 -3.555650 -72.042000 -5.348130 -0.000001 -0.000004 -35.242000 -25.981300 -43.984100 -24.328900 0.000322 -0.000009 0.014235 0.430561 -2.006930 -22.291500 -0.000108 -0.000004 7.052080 5.381060 -2.345780 -2.192480 -6.469440 -0.000000 -171.152000 -9.297420 -0.566276 39.081100 -0.000007 -0.000012 -0.000001 -0.073303 0.000002 40.985400 -0.000006 -0.000013 -12.491900 16.995300 -56.480000 11.754300 -0.000000 0.000003 -0.000414 0.174324 -9.505930 -2.192510 6.469440 -0.000001 179.681000 10.906900 178.735000 -39.081100 -0.002282 -0.040193 0.006138 -0.082016 1.945670 -40.985400 0.000008 0.000006 -9.453880 7.625910 -59.219200 -11.754300 -0.000006 -0.000006 -0.009252 0.265630 -5.783020
